<?xml version="1.0" standalone="no"?>
<!DOCTYPE svg PUBLIC "-//W3C//DTD SVG 20010904//EN"
 "http://www.w3.org/TR/2001/REC-SVG-20010904/DTD/svg10.dtd">
<svg version="1.0" xmlns="http://www.w3.org/2000/svg"
 width="538.000000pt" height="538.000000pt" viewBox="0 0 724.000000 538.000000"
 preserveAspectRatio="xMidYMid meet">
<metadata>
Created by potrace 1.16, written by Peter Selinger 2001-2019
</metadata>
<g transform="translate(0.000000,538.000000) scale(0.100000,-0.100000)"
fill="#1a508b" stroke="none">
<path d="M2395 4501 c-60 -32 -134 -72 -163 -89 -29 -18 -55 -32 -57 -32 -18
0 -340 -216 -500 -336 -100 -75 -152 -117 -325 -262 -30 -25 -136 -127 -235
-226 -294 -295 -488 -521 -695 -812 l-54 -77 -4 -163 c-4 -157 -3 -164 19
-201 13 -21 27 -42 32 -48 4 -5 40 -55 80 -110 72 -100 204 -270 262 -335 194
-221 469 -494 625 -624 52 -43 106 -88 120 -100 209 -176 556 -401 869 -564
165 -86 136 -85 306 -10 50 22 125 55 168 74 42 19 112 49 155 68 42 19 151
66 242 106 319 140 350 154 343 161 -5 3 -53 21 -108 39 -302 98 -712 303
-995 499 -67 46 -194 137 -220 158 -111 88 -145 116 -205 167 -129 112 -258
236 -387 374 -73 79 -256 294 -272 320 -7 11 102 161 180 247 15 17 48 53 72
80 418 466 907 844 1432 1106 141 70 422 189 447 189 21 0 15 18 -9 26 -13 3
-63 25 -113 46 -122 55 -323 142 -475 208 -68 30 -190 83 -326 144 -45 20 -85
36 -90 36 -5 0 -58 -27 -119 -59z"/>
<path d="M5220 4018 c-24 -51 -95 -198 -157 -326 -62 -128 -113 -234 -113
-236 0 -2 -47 -100 -104 -217 -57 -118 -124 -257 -149 -309 -43 -91 -85 -179
-259 -540 -44 -91 -118 -244 -163 -340 -46 -96 -99 -206 -118 -245 -35 -70
-116 -240 -187 -390 -21 -44 -80 -168 -132 -275 -52 -107 -98 -205 -102 -217
l-7 -23 338 0 338 0 29 62 c54 115 249 520 369 768 43 91 100 208 124 260 52
109 130 272 231 480 38 80 97 202 131 273 34 70 89 184 122 255 34 70 83 172
109 227 60 126 162 338 252 525 121 250 168 349 168 355 0 3 -152 5 -338 5
l-338 0 -44 -92z"/>
<path d="M6065 3494 c-44 -20 -152 -68 -240 -106 -88 -38 -164 -73 -168 -77
-4 -4 20 -18 55 -31 94 -33 290 -136 403 -212 187 -125 394 -313 540 -492 72
-89 73 -74 -7 -167 -74 -88 -202 -215 -278 -277 -25 -20 -54 -45 -65 -55 -11
-10 -72 -54 -136 -97 -131 -89 -309 -181 -446 -231 -51 -19 -93 -36 -93 -39 0
-3 33 -19 73 -37 297 -132 439 -193 448 -193 17 0 166 82 276 151 280 176 527
408 729 685 l74 102 0 83 0 83 -84 110 c-207 272 -450 506 -686 660 -41 27
-86 57 -100 66 -40 27 -196 110 -206 110 -5 0 -45 -17 -89 -36z"/>
</g>
</svg>
