<?xml version="1.0" standalone="no"?>
<!DOCTYPE svg PUBLIC "-//W3C//DTD SVG 20010904//EN"
 "http://www.w3.org/TR/2001/REC-SVG-20010904/DTD/svg10.dtd">
<svg version="1.0" xmlns="http://www.w3.org/2000/svg"
 width="2160.000000pt" height="2160.000000pt" viewBox="0 0 2160.000000 2160.000000"
 preserveAspectRatio="xMidYMid meet">
<metadata>
Created by potrace 1.16, written by Peter Selinger 2001-2019
</metadata>
<g transform="translate(0.000000,2160.000000) scale(0.100000,-0.100000)"
fill="#1a508b" stroke="none">
<path d="M9370 12787 c-756 -410 -1405 -986 -1922 -1706 l-82 -113 -4 -172 -4
-171 78 -110 c511 -722 1172 -1306 1912 -1688 l173 -89 42 17 c59 23 998 435
1021 447 16 9 1 17 -90 48 -507 172 -995 454 -1430 827 -240 205 -688 688
-666 717 182 243 537 614 787 822 385 319 790 562 1220 733 l150 60 -45 19
c-25 10 -257 112 -517 226 -259 113 -475 206 -480 206 -4 0 -69 -33 -143 -73z"/>
<path d="M12254 12378 c-48 -93 -1524 -3172 -1521 -3174 1 -2 155 -4 340 -6
l338 -3 769 1600 c423 880 769 1603 770 1608 0 4 -153 7 -340 7 l-339 0 -17
-32z"/>
<path d="M12901 11717 l-254 -111 34 -14 c19 -8 102 -48 184 -88 229 -111 401
-232 593 -418 99 -96 234 -246 256 -284 10 -16 -38 -76 -168 -211 -243 -250
-520 -435 -825 -549 l-101 -38 269 -118 269 -118 102 52 c340 175 681 475 924
814 l56 78 0 85 0 85 -72 96 c-211 281 -448 508 -714 685 -86 57 -283 168
-295 166 -2 0 -118 -50 -258 -112z"/>
</g>
</svg>
